<svg width="10" height="11" viewBox="0 0 10 11" fill="none" xmlns="http://www.w3.org/2000/svg">
<path d="M2.9 0.533203H7.1C8.7 0.533203 10 1.8332 10 3.4332V7.6332C10 8.40233 9.69447 9.13996 9.15061 9.68381C8.60675 10.2277 7.86913 10.5332 7.1 10.5332H2.9C1.3 10.5332 0 9.2332 0 7.6332V3.4332C0 2.66408 0.305535 1.92645 0.84939 1.38259C1.39325 0.838738 2.13087 0.533203 2.9 0.533203ZM2.8 1.5332C2.32261 1.5332 1.86477 1.72285 1.52721 2.06041C1.18964 2.39798 1 2.85581 1 3.3332V7.7332C1 8.7282 1.805 9.5332 2.8 9.5332H7.2C7.67739 9.5332 8.13523 9.34356 8.47279 9.006C8.81036 8.66843 9 8.21059 9 7.7332V3.3332C9 2.3382 8.195 1.5332 7.2 1.5332H2.8ZM7.625 2.2832C7.79076 2.2832 7.94973 2.34905 8.06694 2.46626C8.18415 2.58347 8.25 2.74244 8.25 2.9082C8.25 3.07396 8.18415 3.23293 8.06694 3.35014C7.94973 3.46736 7.79076 3.5332 7.625 3.5332C7.45924 3.5332 7.30027 3.46736 7.18306 3.35014C7.06585 3.23293 7 3.07396 7 2.9082C7 2.74244 7.06585 2.58347 7.18306 2.46626C7.30027 2.34905 7.45924 2.2832 7.625 2.2832ZM5 3.0332C5.66304 3.0332 6.29893 3.2966 6.76777 3.76544C7.23661 4.23428 7.5 4.87016 7.5 5.5332C7.5 6.19624 7.23661 6.83213 6.76777 7.30097C6.29893 7.76981 5.66304 8.0332 5 8.0332C4.33696 8.0332 3.70107 7.76981 3.23223 7.30097C2.76339 6.83213 2.5 6.19624 2.5 5.5332C2.5 4.87016 2.76339 4.23428 3.23223 3.76544C3.70107 3.2966 4.33696 3.0332 5 3.0332ZM5 4.0332C4.60218 4.0332 4.22064 4.19124 3.93934 4.47254C3.65804 4.75385 3.5 5.13538 3.5 5.5332C3.5 5.93103 3.65804 6.31256 3.93934 6.59386C4.22064 6.87517 4.60218 7.0332 5 7.0332C5.39782 7.0332 5.77936 6.87517 6.06066 6.59386C6.34196 6.31256 6.5 5.93103 6.5 5.5332C6.5 5.13538 6.34196 4.75385 6.06066 4.47254C5.77936 4.19124 5.39782 4.0332 5 4.0332Z" fill="#503C16"/>
</svg>
