<svg width="10" height="11" viewBox="0 0 10 11" fill="none" xmlns="http://www.w3.org/2000/svg">
<path d="M5.0005 0.382324C7.762 0.382324 10.0005 2.62082 10.0005 5.38232C10.0005 8.14382 7.762 10.3823 5.0005 10.3823C4.11688 10.3837 3.24882 10.1499 2.4855 9.70482L0.00249531 10.3823L0.678495 7.89832C0.233042 7.13476 -0.000980907 6.26632 0.000495221 5.38232C0.000495221 2.62082 2.239 0.382324 5.0005 0.382324ZM3.2965 3.03232L3.1965 3.03632C3.13176 3.04027 3.06849 3.05728 3.0105 3.08632C2.95626 3.11704 2.90674 3.15544 2.8635 3.20032C2.8035 3.25682 2.7695 3.30582 2.733 3.35332C2.54806 3.59378 2.44848 3.88898 2.45 4.19232C2.451 4.43732 2.515 4.67582 2.615 4.89882C2.8195 5.34982 3.156 5.82732 3.6 6.26982C3.707 6.37632 3.812 6.48332 3.925 6.58282C4.47669 7.06856 5.13412 7.41884 5.845 7.60582L6.129 7.64932C6.2215 7.65432 6.314 7.64732 6.407 7.64282C6.55261 7.63531 6.6948 7.59588 6.8235 7.52732C6.88897 7.4936 6.95287 7.45689 7.015 7.41732C7.015 7.41732 7.0365 7.40332 7.0775 7.37232C7.145 7.32232 7.1865 7.28682 7.2425 7.22832C7.284 7.18532 7.31999 7.13482 7.3475 7.07732C7.3865 6.99582 7.4255 6.84032 7.44149 6.71082C7.4535 6.61182 7.45 6.55782 7.44849 6.52432C7.4465 6.47082 7.402 6.41532 7.3535 6.39182L7.0625 6.26132C7.0625 6.26132 6.62749 6.07182 6.3615 5.95082C6.33366 5.93867 6.30383 5.93172 6.2735 5.93032C6.23929 5.92681 6.20472 5.93066 6.17212 5.94161C6.13952 5.95257 6.10964 5.97037 6.0845 5.99382C6.082 5.99282 6.04849 6.02132 5.687 6.45932C5.66625 6.48721 5.63767 6.50828 5.6049 6.51985C5.57213 6.53143 5.53665 6.53299 5.503 6.52432C5.47042 6.51559 5.43851 6.50456 5.4075 6.49132C5.3455 6.46532 5.324 6.45532 5.2815 6.43732C4.99453 6.3121 4.72884 6.1429 4.494 5.93582C4.43099 5.88082 4.3725 5.82082 4.3125 5.76282C4.11579 5.57444 3.94436 5.36133 3.8025 5.12882L3.77299 5.08132C3.75181 5.04941 3.73468 5.01498 3.722 4.97882C3.703 4.90532 3.7525 4.84632 3.7525 4.84632C3.7525 4.84632 3.874 4.71332 3.9305 4.64132C3.9855 4.57132 4.03199 4.50332 4.062 4.45482C4.121 4.35982 4.1395 4.26232 4.1085 4.18682C3.9685 3.84482 3.8235 3.50432 3.6745 3.16632C3.645 3.09932 3.5575 3.05132 3.478 3.04182C3.451 3.03882 3.424 3.03582 3.397 3.03382C3.32985 3.03049 3.26256 3.03116 3.1955 3.03582L3.2965 3.03232Z" fill="#503C17"/>
</svg>
