<svg width="57" height="46" viewBox="0 0 57 46" fill="none" xmlns="http://www.w3.org/2000/svg">
<path d="M14.6715 11.3771H12.7345V44.3088H14.6715V11.3771Z" fill="#503C16"/>
<path d="M35.9798 11.3771V9.44H1.11102V11.3771H35.9798Z" fill="#503C16"/>
<path d="M43.7286 3.62829V1.69122H1.11153V3.62829H43.7286Z" fill="#503C16"/>
<path d="M24.3574 11.3771H22.4203V44.3088H24.3574V11.3771Z" fill="#503C16"/>
<path d="M35.9798 11.3771H34.0427V44.3088H35.9798V11.3771Z" fill="#503C16"/>
<path d="M55.3515 44.3088V42.3717H34.0427V44.3088L55.3515 44.3088Z" fill="#503C16"/>
<path d="M55.3515 36.5605V34.6234H43.7286V36.5605H55.3515Z" fill="#503C16"/>
<path d="M43.7286 3.6288H41.7915V36.5605L43.7286 36.5605L43.7286 3.6288Z" fill="#503C16"/>
<path d="M35.9798 11.3771V9.44H1.11102V11.3771H35.9798ZM35.9798 11.3771H34.0427V44.3088M35.9798 11.3771V44.3088H34.0427M34.0427 44.3088L55.3515 44.3088V42.3717H34.0427V44.3088ZM43.7286 36.5605H55.3515V34.6234H43.7286V36.5605ZM43.7286 36.5605L43.7286 3.6288H41.7915V36.5605L43.7286 36.5605ZM12.7345 11.3771H14.6715V44.3088H12.7345V11.3771ZM43.7286 1.69122V3.62829H1.11153V1.69122H43.7286ZM22.4203 11.3771H24.3574V44.3088H22.4203V11.3771Z" stroke="#503C16" stroke-width="2" stroke-miterlimit="10"/>
</svg>
