<svg width="31" height="31" viewBox="0 0 31 31" fill="none" xmlns="http://www.w3.org/2000/svg">
<path d="M9.14922 0.0273438H21.7492C26.5492 0.0273438 30.4492 3.92734 30.4492 8.72734V21.3273C30.4492 23.6347 29.5326 25.8476 27.901 27.4792C26.2695 29.1107 24.0566 30.0273 21.7492 30.0273H9.14922C4.34922 30.0273 0.449219 26.1273 0.449219 21.3273V8.72734C0.449219 6.41996 1.36582 4.20708 2.99739 2.57551C4.62896 0.943948 6.84184 0.0273438 9.14922 0.0273438ZM8.84922 3.02734C7.41705 3.02734 6.04354 3.59627 5.03084 4.60897C4.01815 5.62166 3.44922 6.99517 3.44922 8.42734V21.6273C3.44922 24.6123 5.86422 27.0273 8.84922 27.0273H22.0492C23.4814 27.0273 24.8549 26.4584 25.8676 25.4457C26.8803 24.433 27.4492 23.0595 27.4492 21.6273V8.42734C27.4492 5.44234 25.0342 3.02734 22.0492 3.02734H8.84922ZM23.3242 5.27734C23.8215 5.27734 24.2984 5.47489 24.65 5.82652C25.0017 6.17815 25.1992 6.65506 25.1992 7.15234C25.1992 7.64962 25.0017 8.12654 24.65 8.47817C24.2984 8.8298 23.8215 9.02734 23.3242 9.02734C22.8269 9.02734 22.35 8.8298 21.9984 8.47817C21.6468 8.12654 21.4492 7.64962 21.4492 7.15234C21.4492 6.65506 21.6468 6.17815 21.9984 5.82652C22.35 5.47489 22.8269 5.27734 23.3242 5.27734ZM15.4492 7.52734C17.4383 7.52734 19.346 8.31752 20.7525 9.72404C22.159 11.1306 22.9492 13.0382 22.9492 15.0273C22.9492 17.0165 22.159 18.9241 20.7525 20.3306C19.346 21.7372 17.4383 22.5273 15.4492 22.5273C13.4601 22.5273 11.5524 21.7372 10.1459 20.3306C8.7394 18.9241 7.94922 17.0165 7.94922 15.0273C7.94922 13.0382 8.7394 11.1306 10.1459 9.72404C11.5524 8.31752 13.4601 7.52734 15.4492 7.52734ZM15.4492 10.5273C14.2557 10.5273 13.1112 11.0014 12.2672 11.8454C11.4233 12.6893 10.9492 13.8339 10.9492 15.0273C10.9492 16.2208 11.4233 17.3654 12.2672 18.2093C13.1112 19.0532 14.2557 19.5273 15.4492 19.5273C16.6427 19.5273 17.7873 19.0532 18.6312 18.2093C19.4751 17.3654 19.9492 16.2208 19.9492 15.0273C19.9492 13.8339 19.4751 12.6893 18.6312 11.8454C17.7873 11.0014 16.6427 10.5273 15.4492 10.5273Z" fill="#503C16"/>
</svg>
