<svg width="28" height="28" viewBox="0 0 28 28" fill="none" xmlns="http://www.w3.org/2000/svg">
<path d="M6.37922 12.645C8.53922 16.89 12.0192 20.355 16.2642 22.53L19.5642 19.23C19.9692 18.825 20.5692 18.69 21.0942 18.87C22.7742 19.425 24.5892 19.725 26.4492 19.725C27.2742 19.725 27.9492 20.4 27.9492 21.225V26.46C27.9492 27.285 27.2742 27.96 26.4492 27.96C12.3642 27.96 0.949219 16.545 0.949219 2.45996C0.949219 1.63496 1.62422 0.959961 2.44922 0.959961H7.69922C8.52422 0.959961 9.19922 1.63496 9.19922 2.45996C9.19922 4.33496 9.49922 6.13496 10.0542 7.81496C10.2192 8.33996 10.0992 8.92496 9.67922 9.34496L6.37922 12.645Z" fill="black"/>
</svg>
